<?xml version="1.0" encoding="UTF-8" standalone="no"?>
<!-- Created with Inkscape (http://www.inkscape.org/) -->

<svg
   xmlns:dc="http://purl.org/dc/elements/1.1/"
   xmlns:cc="http://creativecommons.org/ns#"
   xmlns:rdf="http://www.w3.org/1999/02/22-rdf-syntax-ns#"
   xmlns:svg="http://www.w3.org/2000/svg"
   xmlns="http://www.w3.org/2000/svg"
   xmlns:xlink="http://www.w3.org/1999/xlink"
   xmlns:sodipodi="http://sodipodi.sourceforge.net/DTD/sodipodi-0.dtd"
   xmlns:inkscape="http://www.inkscape.org/namespaces/inkscape"
   width="512"
   height="512"
   id="svg2"
   version="1.1"
   inkscape:version="0.48.4 r9939"
   sodipodi:docname="ic_launcher.svg"
   inkscape:export-filename="/home/narf/AndroidStudioProjects/TransformableDrawableButton/art/ic_web.png"
   inkscape:export-xdpi="240"
   inkscape:export-ydpi="240">
  <defs
     id="defs4">
    <linearGradient
       id="linearGradient3826">
      <stop
         style="stop-color:#ffffff;stop-opacity:1;"
         offset="0"
         id="stop3828" />
      <stop
         style="stop-color:#ffffff;stop-opacity:0;"
         offset="1"
         id="stop3830" />
    </linearGradient>
    <linearGradient
       inkscape:collect="always"
       id="linearGradient3802">
      <stop
         style="stop-color:#000000;stop-opacity:1;"
         offset="0"
         id="stop3804" />
      <stop
         style="stop-color:#000000;stop-opacity:0;"
         offset="1"
         id="stop3806" />
    </linearGradient>
    <inkscape:path-effect
       effect="bend_path"
       id="path-effect3107"
       is_visible="true"
       bendpath="m 24.511798,787.61225 463.774392,0"
       prop_scale="1"
       scale_y_rel="false"
       vertical="false" />
    <filter
       inkscape:collect="always"
       id="filter3796">
      <feGaussianBlur
         inkscape:collect="always"
         stdDeviation="2.3607396"
         id="feGaussianBlur3798" />
    </filter>
    <linearGradient
       inkscape:collect="always"
       xlink:href="#linearGradient3802"
       id="linearGradient3810"
       x1="256"
       y1="796.36218"
       x2="473.30417"
       y2="794.67847"
       gradientUnits="userSpaceOnUse"
       spreadMethod="reflect"
       gradientTransform="matrix(1.0621574,0,0,1.0621574,-15.980276,-49.767846)" />
    <linearGradient
       inkscape:collect="always"
       xlink:href="#linearGradient3802"
       id="linearGradient3840"
       gradientUnits="userSpaceOnUse"
       spreadMethod="reflect"
       x1="256"
       y1="796.36218"
       x2="473.30417"
       y2="794.67847"
       gradientTransform="translate(0,-540.36218)" />
    <filter
       inkscape:collect="always"
       id="filter3875">
      <feGaussianBlur
         inkscape:collect="always"
         stdDeviation="8.9462497"
         id="feGaussianBlur3877" />
    </filter>
  </defs>
  <sodipodi:namedview
     id="base"
     pagecolor="#ffffff"
     bordercolor="#666666"
     borderopacity="1.0"
     inkscape:pageopacity="0.0"
     inkscape:pageshadow="2"
     inkscape:zoom="0.76439138"
     inkscape:cx="258.80255"
     inkscape:cy="284.71666"
     inkscape:document-units="px"
     inkscape:current-layer="layer1"
     showgrid="false"
     inkscape:window-width="1615"
     inkscape:window-height="1026"
     inkscape:window-x="65"
     inkscape:window-y="24"
     inkscape:window-maximized="1"
     showguides="true"
     inkscape:guide-bbox="true">
    <sodipodi:guide
       orientation="0,1"
       position="347.98927,256"
       id="guide3881" />
    <sodipodi:guide
       orientation="1,0"
       position="256,374.15388"
       id="guide3883" />
  </sodipodi:namedview>
  <metadata
     id="metadata7">
    <rdf:RDF>
      <cc:Work
         rdf:about="">
        <dc:format>image/svg+xml</dc:format>
        <dc:type
           rdf:resource="http://purl.org/dc/dcmitype/StillImage" />
        <dc:title />
      </cc:Work>
    </rdf:RDF>
  </metadata>
  <g
     inkscape:label="Capa 1"
     inkscape:groupmode="layer"
     id="layer1"
     transform="translate(0,-540.36218)">
    <path
       style="opacity:0.80534351;fill:#000000;fill-opacity:1;stroke:#000000;stroke-width:0;stroke-linecap:round;stroke-linejoin:round;stroke-miterlimit:4;stroke-opacity:1;stroke-dasharray:none;filter:url(#filter3875)"
       d="m 397.8125,569.58093 0,101.59375 -287.46875,0 0,-100.59375 -69.46875,233.84375 80.40625,227.34372 0,-103.62497 287.625,0 0,102.74997 64.40625,-226.46872 -15.09375,-46.9375 1.125,-1.15625 3.8125,-3.875 -0.21875,-2.4375 -0.25,-2.46875 -1.59375,-0.6875 -1.625,-0.71875 0.4375,-2.5625 0.40625,-2.59375 -2.28125,-2.4375 c -2.507,-2.68372 -2.49153,-3.62765 0.0625,-4.8125 0.94209,-0.43706 2.68302,-1.23644 3.875,-1.78125 1.19197,-0.54483 3.38503,-1.96086 4.875,-3.125 l 2.71875,-2.09375 0,-1.71875 0,-1.75 -2.65625,-1.09375 -2.6875,-1.125 -2.8125,0.9375 c -1.55528,0.51328 -4.91638,2.49772 -7.4375,4.40625 -1.83367,1.38813 -3.64958,2.5713 -4.75,3.125 l -0.78125,-2.46875 c 0.74675,-1.35474 2.45211,-3.52226 4.0625,-5.1875 3.37834,-3.49339 4.05569,-5.44432 2.46875,-7.03125 -1.20751,-1.20751 -5.28489,-1.08835 -6.34375,0.1875 -0.36937,0.44508 -1.68119,1.50331 -3.21875,2.59375 L 397.8125,569.58093 z"
       id="path3836"
       inkscape:connector-curvature="0"
       transform="matrix(1.0621574,0,0,1.0621574,-15.980276,-49.767846)" />
    <path
       style="fill:#00b3ff;fill-opacity:1;stroke:#000000;stroke-width:0;stroke-linecap:round;stroke-linejoin:round;stroke-miterlimit:4;stroke-opacity:1;stroke-dasharray:none"
       d="m 27.434786,798.29854 73.802184,-248.39706 0,106.84437 305.33761,0 0,-107.8901 80.16865,249.44279 -68.40737,240.52476 0,-109.11545 -305.48354,0 0,110.04795 z"
       id="path3877"
       inkscape:connector-curvature="0"
       sodipodi:nodetypes="ccccccccccc" />
    <path
       sodipodi:nodetypes="ccccccccccc"
       inkscape:connector-curvature="0"
       id="path3800"
       d="m 27.434786,798.29854 73.802184,-248.39706 0,106.84437 305.33761,0 0,-107.8901 80.16865,249.44279 -68.40737,240.52476 0,-109.11545 -305.48354,0 0,110.04795 z"
       style="opacity:0.44274813;fill:url(#linearGradient3810);fill-opacity:1;stroke:#000000;stroke-width:0;stroke-linecap:round;stroke-linejoin:round;stroke-miterlimit:4;stroke-opacity:1;stroke-dasharray:none" />
    <path
       id="path3079"
       style="fill:#ffffff;fill-opacity:1;stroke:none"
       d="m 127.62789,924.65193 c 0.39527,-2.28198 1.0701,-5.87552 1.49959,-7.98562 0.42951,-2.11011 0.73713,-5.80616 0.68363,-8.21352 -0.0535,-2.40736 0.27468,-5.07199 0.72929,-5.92141 0.45463,-0.84949 0.9978,-5.26773 1.20705,-9.81827 0.55681,-12.10853 1.42466,-18.62238 2.94251,-22.08533 l 1.34526,-3.06924 0.31779,-5.37117 c 0.17478,-2.95415 0.37564,-5.88911 0.44634,-6.52215 0.0707,-0.63302 -0.338,-2.79438 -0.90824,-4.80304 l -1.03681,-3.65209 1.24554,-2.1085 1.24555,-2.10856 -0.0428,-3.44715 c -0.0599,-4.82062 0.92285,-10.13992 2.12609,-11.50726 l 1.01581,-1.15435 0.28897,-6.1351 0.28896,-6.13503 1.4013,-2.1342 1.40129,-2.13419 -0.42544,-3.62064 -0.42541,-3.62062 1.51628,-1.86572 1.51628,-1.86571 -0.44212,-2.73815 -0.44213,-2.73814 1.16552,-2.1978 c 0.64099,-1.20883 1.16548,-2.86169 1.16548,-3.67296 l 0,-1.47515 4.79569,-4.69318 c 6.84342,-6.69724 7.81303,-7.52733 8.79217,-7.52733 0.48031,0 1.84933,-0.81467 3.04225,-1.81035 1.19294,-0.99566 3.26308,-2.37116 4.60032,-3.05665 l 2.43133,-1.24636 0.53661,-5.01075 c 0.29514,-2.75592 0.84116,-5.19898 1.21339,-5.42903 1.20806,-0.74661 0.71857,-3.11178 -1.19558,-5.77724 -2.57743,-3.589 -5.03343,-8.97665 -5.03343,-11.04169 0,-1.71812 -1.76471,-4.38648 -5.11993,-7.7417 -0.98222,-0.98222 -1.78587,-2.37268 -1.78587,-3.08993 0,-0.71724 -1.3562,-2.46492 -3.0138,-3.88377 l -3.0138,-2.5797 -0.91545,-2.86507 c -0.50348,-1.57579 -1.219,-3.1931 -1.59005,-3.59401 -0.37104,-0.40094 -0.67462,-1.41228 -0.67462,-2.24745 0,-0.83519 -0.41211,-2.65817 -0.91578,-4.05108 l -0.9158,-2.53256 1.68311,-1.79158 c 1.85631,-1.97595 2.1331,-3.62132 0.82863,-4.92579 l -0.85445,-0.85446 0.32796,-8.3149 0.32798,-8.31488 1.95456,-4.60386 1.95456,-4.60387 5.28589,-3.60362 5.2859,-3.60364 2.30698,-0.0411 c 3.90322,-0.0696 6.77463,-1.2582 9.82717,-4.06814 l 2.92643,-2.69387 2.82839,-0.46764 c 1.55561,-0.25721 4.03691,-0.46378 5.51398,-0.45904 l 2.68559,0.009 1.91826,1.5005 c 1.05505,0.82528 2.95414,1.51326 4.22021,1.52887 1.26606,0.0155 3.16515,0.5257 4.22021,1.13356 1.05505,0.60785 3.70181,1.95198 5.88167,2.98696 4.05003,1.92292 5.62797,3.76636 5.62797,6.57493 0,0.87055 1.16896,2.87868 2.59766,4.46246 3.29126,3.6485 5.07545,7.90807 5.07545,12.11711 0,1.81238 0.35339,3.41304 0.78531,3.55701 l 0.78527,0.26176 -0.49755,2.48778 -0.49755,2.48776 -1.16192,0 -1.16195,0 0.44271,3.73798 c 0.2435,2.05589 1.03122,5.53721 1.75048,7.73623 l 1.30776,3.99825 -0.48327,7.03449 c -1.51337,22.02887 -2.03452,27.46518 -2.76346,28.82723 -0.44428,0.83013 -0.80777,2.51682 -0.80777,3.74822 0,1.23141 -0.78758,3.40761 -1.75018,4.83602 -1.67888,2.49129 -2.9768,3.19187 -7.68222,4.14655 l -2.14295,0.4348 -0.40617,1.31993 c -0.22338,0.72596 -0.72735,1.83786 -1.11994,2.47089 -0.39258,0.63303 -1.03695,1.89433 -1.43192,2.80288 -0.395,0.90855 -1.07768,1.87411 -1.51708,2.14568 l -0.79893,0.49375 0.66904,1.30727 c 0.36796,0.71897 1.01964,2.20311 1.44815,3.29814 0.90561,2.31411 7.33565,6.83312 9.72278,6.83312 1.91946,0 3.47323,1.35377 3.47862,3.03087 0.003,0.65414 0.86994,2.2252 1.92854,3.49127 2.61088,3.12256 4.20613,6.94584 4.20613,10.08083 0,2.97816 1.62895,8.71826 2.47413,8.71826 1.13076,0 1.74607,-4.39408 1.74607,-12.46893 l 0,-8.24875 0.85566,1.6e-4 c 0.47062,7e-5 1.72883,-0.68667 2.79603,-1.52611 l 1.94036,-1.52634 0.42159,-2.8857 c 0.23187,-1.58717 0.65316,-4.00919 0.93619,-5.38237 l 0.51462,-2.49652 3.26638,-1.44486 c 1.7965,-0.79469 3.51418,-1.84586 3.81708,-2.33595 l 0.55073,-0.89108 3.57667,0.52011 c 1.96717,0.28606 4.50908,0.9932 5.64869,1.57144 1.1396,0.57822 3.74653,1.05132 5.79319,1.05132 l 3.72118,0 0.92078,-0.92077 c 1.31327,-1.31329 1.14181,-3.24291 -0.55696,-6.26739 -0.81275,-1.44702 -2.00239,-4.13352 -2.64366,-5.96998 -3.08381,-8.83133 -4.53417,-12.65536 -5.53092,-14.58286 l -1.08621,-2.1005 0.83006,-5.96788 c 0.91713,-6.59397 1.44397,-7.90811 4.64982,-11.59873 1.20416,-1.38624 2.18941,-2.85155 2.18941,-3.25624 0,-0.40471 1.43296,-1.77385 3.18436,-3.04254 l 3.18437,-2.30675 7.0241,0 7.0241,0 3.41612,2.16646 c 1.87888,1.19154 5.39938,4.35799 7.82332,7.03653 l 4.4072,4.87011 0,2.19817 c 0,1.20899 0.56687,3.06333 1.25972,4.12075 0.69283,1.05741 1.53716,3.20331 1.8763,4.76868 0.3391,1.56536 1.11641,5.03209 1.72734,7.70384 l 1.11077,4.85771 1.56432,1.09569 c 0.86036,0.60263 1.67424,1.86953 1.80861,2.81538 l 0.24431,1.7197 2.30193,-0.0997 c 2.76514,-0.11983 8.74661,-2.28917 10.38698,-3.7671 l 1.17927,-1.06251 1.88998,0.46541 c 1.03948,0.25598 2.30675,0.7908 2.81615,1.18849 l 0.92617,0.7231 1.73833,-1.21757 c 0.95606,-0.66965 2.51812,-1.21756 3.47122,-1.21756 l 1.73293,0 0.51572,-2.11012 c 0.88393,-3.61671 4.42302,-9.5595 6.17091,-10.36213 l 1.66987,-0.76679 2.16667,0.62189 c 1.19168,0.34204 2.68462,0.70263 3.31766,0.80129 0.63302,0.0987 2.18683,0.53196 3.45289,0.96287 1.26606,0.43088 3.83388,1.22654 5.70629,1.76811 3.40685,0.98539 7.72163,3.97359 7.72163,5.34761 0,0.40159 0.73591,1.72552 1.63535,2.94208 l 1.63532,2.21192 -0.4477,1.78539 c -0.24623,0.98196 -0.66412,2.66709 -0.92864,3.74471 l -0.48095,1.9593 1.9789,0.90167 c 2.22287,1.01281 2.54645,2.57753 0.82793,4.00378 -1.7961,1.49063 -1.3655,2.30193 1.22176,2.30193 l 2.37273,0 1.95096,1.53462 c 2.05977,1.62019 5.93163,2.06153 6.73151,0.76732 0.72327,-1.1703 2.04086,-0.92565 4.98752,0.92606 2.5386,1.59531 11.26218,4.38111 13.85621,4.42493 0.65759,0.0107 2.21139,-1.40794 3.4529,-3.15335 1.24152,-1.7454 3.72478,-4.71899 5.51837,-6.60792 1.79358,-1.88891 3.26106,-3.83335 3.26106,-4.32093 0,-0.4876 1.49952,-2.60705 3.33224,-4.70991 1.83273,-2.10286 3.7506,-4.61265 4.26195,-5.57734 l 0.92968,-1.75399 2.243,-0.44859 c 1.23363,-0.24673 2.65717,-0.94765 3.16338,-1.55761 l 0.92039,-1.109 -0.90318,-2.49772 c -0.49675,-1.37374 -0.90318,-3.06824 -0.90318,-3.76551 0,-1.96347 -3.26069,-8.38025 -5.13868,-10.11255 l -1.68578,-1.55498 -0.17979,-2.30193 c -0.0989,-1.26606 0.0888,-3.1104 0.41695,-4.09853 l 0.59676,-1.7966 1.65247,0.44333 c 0.90886,0.24384 2.10476,0.44805 2.65755,0.4538 0.55278,0.005 2.83748,1.74352 5.07713,3.86166 l 4.07204,3.85118 2.1818,-2.86049 c 3.11135,-4.07918 14.52849,-15.5842 15.46517,-15.5842 0.4327,0 1.22115,-1.04877 1.7521,-2.3306 l 0.96536,-2.33056 4.04393,-2.68421 c 2.22416,-1.47632 4.46359,-3.18987 4.9765,-3.80791 1.12468,-1.35516 5.44713,-1.48548 6.72969,-0.20292 1.68558,1.68557 0.95486,3.75783 -2.63347,7.46836 -1.95484,2.02142 -4.00991,4.759 -4.56682,6.08351 l -1.01256,2.40818 1.14789,0 c 0.63135,0 3.33886,-1.65859 6.0167,-3.68577 2.67782,-2.02716 6.22036,-4.13183 7.87232,-4.67702 l 3.00353,-0.99125 2.83605,1.18498 2.83603,1.18497 0,1.829 0,1.82901 -2.8774,2.24819 c -1.58259,1.2365 -3.91329,2.72163 -5.17935,3.30032 -1.26607,0.57867 -3.12065,1.43196 -4.1213,1.89619 -2.71278,1.25849 -2.72517,2.27769 -0.0623,5.12822 l 2.41071,2.58067 -0.43757,2.73643 -0.43757,2.73643 1.70771,0.74936 1.70771,0.74937 0.24866,2.60392 0.24866,2.60391 -4.059,4.11005 -4.05901,4.11005 -1.85546,0 c -1.0205,0 -3.14803,0.38726 -4.72785,0.86058 l -2.87237,0.86058 -2.0059,3.1678 c -1.10324,1.74229 -3.19884,4.11734 -4.65691,5.2779 l -2.65102,2.11011 -3.78931,0 -3.7893,0 -1.38939,2.1101 -1.38942,2.11009 0.18346,14.54038 0.18347,14.54038 0.82385,0.99266 0.82383,0.99268 -1.12835,2.49873 c -0.6206,1.37435 -1.89986,4.57049 -2.84282,7.10262 -0.94296,2.53213 -2.01381,5.36272 -2.37966,6.29025 l -0.66519,1.68648 -3.6794,1.12018 c -2.02369,0.61616 -5.04947,1.70613 -6.72398,2.4221 l -3.04456,1.3019 -4.62854,-0.50643 c -2.54568,-0.27854 -9.46258,-0.76317 -15.37087,-1.07707 l -10.74233,-0.57065 -5.58825,-2.57003 -5.58823,-2.56996 -3.8075,1.84048 -3.80753,1.84046 -0.40361,1.53463 c -0.58824,2.23663 -0.58181,10.95881 0.011,14.97942 l 0.51163,3.46979 -1.52537,4.0144 c -0.83894,2.20795 -1.35566,4.66341 -1.14825,5.4565 0.20741,0.79317 -0.1615,2.48363 -0.8198,3.7566 -1.52908,2.9569 -7.13755,7.77622 -9.65697,8.29815 -1.06637,0.22091 -2.53842,0.72603 -3.27125,1.12257 -0.7328,0.39655 -2.89085,0.72097 -4.79568,0.72097 l -3.46328,0 -1.36217,1.34279 -1.36217,1.3428 2.236,4.21353 c 1.22981,2.31742 2.75569,4.5935 3.39085,5.05795 l 1.15483,0.84443 0.65112,4.76108 0.65112,4.76108 -1.25239,1.91136 -1.25238,1.91137 1.25818,3.89572 c 0.692,2.14271 1.25817,4.55881 1.25817,5.36925 0,0.81044 0.52197,2.27009 1.15992,3.24372 l 1.15991,1.77027 0.32619,5.30034 c 0.17938,2.91517 0.73235,6.85416 1.22879,8.75324 0.49646,1.8991 1.0657,5.61096 1.26498,8.24859 l 0.36233,4.79568 -19.16134,0 -19.16135,0 -0.95352,-5.17933 c -0.52444,-2.84864 -1.22983,-5.69729 -1.56752,-6.33031 l -0.614,-1.15096 -4.84965,-0.15661 c -2.66734,-0.0863 -5.71291,-0.25882 -6.76796,-0.38365 l -1.91828,-0.22706 0.26895,5.58334 0.26895,5.58325 -0.93839,1.13072 -0.93838,1.13061 -17.08512,0 -17.08514,0 -0.45821,-2.49375 c -1.77617,-9.66665 -2.51136,-30.62388 -1.19608,-34.09526 1.13879,-3.00563 3.75147,-5.61012 5.64563,-5.62799 l 1.59271,-0.0154 -3.26108,-2.73416 -3.26107,-2.73422 0.0116,-2.04651 c 0.005,-1.12555 0.50912,-3.42757 1.11728,-5.11564 0.60815,-1.68809 1.1209,-3.85705 1.13942,-4.81979 l 0.0337,-1.75054 -1.34279,-0.42715 c -0.73854,-0.23495 -2.66527,-1.12497 -4.28164,-1.97783 l -2.93885,-1.55065 -2.26492,0.45292 -2.26492,0.45304 -0.71416,-1.87839 c -0.39278,-1.03302 -2.16674,-2.93057 -3.94211,-4.21667 -1.77541,-1.28608 -3.90269,-3.44775 -4.72729,-4.80374 l -1.4993,-2.46537 0.46189,-4.94631 0.46189,-4.94631 -0.84481,-1.01792 c -0.46469,-0.55983 -1.49315,-1.01791 -2.28551,-1.01791 -0.79238,0 -1.45451,-0.43161 -1.47139,-0.95914 -0.0169,-0.52753 -0.54132,-0.0184 -1.16536,1.13172 -2.32801,4.28979 -5.96167,4.77173 -8.91175,1.18202 -2.62937,-3.19944 -3.30183,-2.48438 -1.80626,1.92066 0.64978,1.91391 0.97861,4.00828 0.73073,4.65428 l -0.45069,1.17445 2.30975,1.19438 c 2.72204,1.40764 3.51583,3.38569 2.72549,6.79154 -0.31609,1.36206 -0.48926,3.41814 -0.38484,4.56911 0.10441,1.15089 -0.15416,3.22263 -0.5746,4.60386 -0.42046,1.38116 -1.17059,4.33353 -1.66697,6.5608 l -0.90252,4.04965 0.99785,1.20229 0.99786,1.20238 0.10271,8.94882 0.10282,8.94891 0.89399,1.67044 c 0.4917,0.91877 0.894,3.22653 0.894,5.12846 0,1.90194 0.28327,3.63307 0.62949,3.84706 0.34622,0.21401 0.67019,5.24104 0.71995,11.17128 l 0.0905,10.78224 -9.86402,0 -9.86402,0 -0.0649,-17.39346 c -0.0356,-9.56645 -0.23692,-17.56565 -0.44729,-17.77596 -1.15438,-1.15443 -1.43396,2.28335 -1.45723,17.91792 l -0.0256,17.2515 -10.5758,0 -10.57581,0 -0.0117,-3.64473 c -0.005,-2.0046 -0.32951,-4.147 -0.71788,-4.76091 l -0.70614,-1.1163 1.23539,-2.09129 1.23536,-2.09131 -1.28481,-3.9782 c -0.70664,-2.18799 -1.2848,-5.59737 -1.2848,-7.57635 l 0,-3.59814 -2.28504,-3.60314 c -1.25675,-1.98173 -2.61441,-3.60313 -3.01698,-3.60313 -0.96382,0 -3.11566,3.19485 -5.79064,8.5974 l -2.16732,4.37713 0.51318,5.21417 c 0.28225,2.86783 0.717,7.46861 0.96614,10.2241 l 0.45295,5.00985 -1.17377,0.97417 -1.17377,0.9741 -25.30284,0.46698 -25.30286,0.46693 0.7187,-4.14901 z"
       inkscape:connector-curvature="0" />
  </g>
</svg>
